<?xml version="1.0" encoding="utf-8" standalone="no"?>
<!DOCTYPE svg PUBLIC "-//W3C//DTD SVG 1.1//EN"
  "http://www.w3.org/Graphics/SVG/1.1/DTD/svg11.dtd">
<svg xmlns:xlink="http://www.w3.org/1999/xlink" width="720pt" height="432pt" viewBox="0 0 720 432" xmlns="http://www.w3.org/2000/svg" version="1.1">
 <metadata>
  <rdf:RDF xmlns:dc="http://purl.org/dc/elements/1.1/" xmlns:cc="http://creativecommons.org/ns#" xmlns:rdf="http://www.w3.org/1999/02/22-rdf-syntax-ns#">
   <cc:Work>
    <dc:type rdf:resource="http://purl.org/dc/dcmitype/StillImage"/>
    <dc:date>2025-05-13T14:59:12.915125</dc:date>
    <dc:format>image/svg+xml</dc:format>
    <dc:creator>
     <cc:Agent>
      <dc:title>Matplotlib v3.10.1, https://matplotlib.org/</dc:title>
     </cc:Agent>
    </dc:creator>
   </cc:Work>
  </rdf:RDF>
 </metadata>
 <defs>
  <style type="text/css">*{stroke-linejoin: round; stroke-linecap: butt}</style>
 </defs>
 <g id="figure_1">
  <g id="patch_1">
   <path d="M 0 432 
L 720 432 
L 720 0 
L 0 0 
z
" style="fill: #ffffff"/>
  </g>
  <g id="axes_1">
   <g id="patch_2">
    <path d="M 79.445 383.2 
L 707.04 383.2 
L 707.04 29.58 
L 79.445 29.58 
z
" style="fill: #ffffff"/>
   </g>
   <g id="matplotlib.axis_1">
    <g id="xtick_1">
     <g id="line2d_1">
      <path d="M 107.972045 383.2 
L 107.972045 29.58 
" clip-path="url(#pdf30feb918)" style="fill: none; stroke: #b0b0b0; stroke-width: 0.8; stroke-linecap: square"/>
     </g>
     <g id="line2d_2">
      <defs>
       <path id="m26f41f5faf" d="M 0 0 
L 0 3.5 
" style="stroke: #000000; stroke-width: 0.8"/>
      </defs>
      <g>
       <use xlink:href="#m26f41f5faf" x="107.972045" y="383.2" style="stroke: #000000; stroke-width: 0.8"/>
      </g>
     </g>
     <g id="text_1">
      <!-- 0 -->
      <g transform="translate(104.154545 399.318125) scale(0.12 -0.12)">
       <defs>
        <path id="DejaVuSerif-30" d="M 2034 219 
Q 2513 219 2750 744 
Q 2988 1269 2988 2328 
Q 2988 3391 2750 3916 
Q 2513 4441 2034 4441 
Q 1556 4441 1318 3916 
Q 1081 3391 1081 2328 
Q 1081 1269 1318 744 
Q 1556 219 2034 219 
z
M 2034 -91 
Q 1275 -91 848 546 
Q 422 1184 422 2328 
Q 422 3475 848 4112 
Q 1275 4750 2034 4750 
Q 2797 4750 3222 4112 
Q 3647 3475 3647 2328 
Q 3647 1184 3222 546 
Q 2797 -91 2034 -91 
z
" transform="scale(0.015625)"/>
       </defs>
       <use xlink:href="#DejaVuSerif-30"/>
      </g>
     </g>
    </g>
    <g id="xtick_2">
     <g id="line2d_3">
      <path d="M 198.776451 383.2 
L 198.776451 29.58 
" clip-path="url(#pdf30feb918)" style="fill: none; stroke: #b0b0b0; stroke-width: 0.8; stroke-linecap: square"/>
     </g>
     <g id="line2d_4">
      <g>
       <use xlink:href="#m26f41f5faf" x="198.776451" y="383.2" style="stroke: #000000; stroke-width: 0.8"/>
      </g>
     </g>
     <g id="text_2">
      <!-- 5 -->
      <g transform="translate(194.958951 399.318125) scale(0.12 -0.12)">
       <defs>
        <path id="DejaVuSerif-35" d="M 3219 4666 
L 3219 4153 
L 1081 4153 
L 1081 2816 
Q 1244 2928 1461 2984 
Q 1678 3041 1947 3041 
Q 2703 3041 3140 2622 
Q 3578 2203 3578 1478 
Q 3578 738 3136 323 
Q 2694 -91 1894 -91 
Q 1572 -91 1234 -12 
Q 897 66 544 225 
L 544 1131 
L 897 1131 
Q 925 688 1179 453 
Q 1434 219 1894 219 
Q 2388 219 2653 544 
Q 2919 869 2919 1478 
Q 2919 2084 2655 2407 
Q 2391 2731 1894 2731 
Q 1613 2731 1398 2631 
Q 1184 2531 1019 2322 
L 750 2322 
L 750 4666 
L 3219 4666 
z
" transform="scale(0.015625)"/>
       </defs>
       <use xlink:href="#DejaVuSerif-35"/>
      </g>
     </g>
    </g>
    <g id="xtick_3">
     <g id="line2d_5">
      <path d="M 289.580857 383.2 
L 289.580857 29.58 
" clip-path="url(#pdf30feb918)" style="fill: none; stroke: #b0b0b0; stroke-width: 0.8; stroke-linecap: square"/>
     </g>
     <g id="line2d_6">
      <g>
       <use xlink:href="#m26f41f5faf" x="289.580857" y="383.2" style="stroke: #000000; stroke-width: 0.8"/>
      </g>
     </g>
     <g id="text_3">
      <!-- 10 -->
      <g transform="translate(281.945857 399.318125) scale(0.12 -0.12)">
       <defs>
        <path id="DejaVuSerif-31" d="M 909 0 
L 909 331 
L 1722 331 
L 1722 4213 
L 781 3603 
L 781 4013 
L 1919 4750 
L 2350 4750 
L 2350 331 
L 3163 331 
L 3163 0 
L 909 0 
z
" transform="scale(0.015625)"/>
       </defs>
       <use xlink:href="#DejaVuSerif-31"/>
       <use xlink:href="#DejaVuSerif-30" transform="translate(63.623047 0)"/>
      </g>
     </g>
    </g>
    <g id="xtick_4">
     <g id="line2d_7">
      <path d="M 380.385263 383.2 
L 380.385263 29.58 
" clip-path="url(#pdf30feb918)" style="fill: none; stroke: #b0b0b0; stroke-width: 0.8; stroke-linecap: square"/>
     </g>
     <g id="line2d_8">
      <g>
       <use xlink:href="#m26f41f5faf" x="380.385263" y="383.2" style="stroke: #000000; stroke-width: 0.8"/>
      </g>
     </g>
     <g id="text_4">
      <!-- 15 -->
      <g transform="translate(372.750263 399.318125) scale(0.12 -0.12)">
       <use xlink:href="#DejaVuSerif-31"/>
       <use xlink:href="#DejaVuSerif-35" transform="translate(63.623047 0)"/>
      </g>
     </g>
    </g>
    <g id="xtick_5">
     <g id="line2d_9">
      <path d="M 471.189669 383.2 
L 471.189669 29.58 
" clip-path="url(#pdf30feb918)" style="fill: none; stroke: #b0b0b0; stroke-width: 0.8; stroke-linecap: square"/>
     </g>
     <g id="line2d_10">
      <g>
       <use xlink:href="#m26f41f5faf" x="471.189669" y="383.2" style="stroke: #000000; stroke-width: 0.8"/>
      </g>
     </g>
     <g id="text_5">
      <!-- 20 -->
      <g transform="translate(463.554669 399.318125) scale(0.12 -0.12)">
       <defs>
        <path id="DejaVuSerif-32" d="M 819 3553 
L 469 3553 
L 469 4384 
Q 803 4563 1142 4656 
Q 1481 4750 1806 4750 
Q 2534 4750 2956 4397 
Q 3378 4044 3378 3438 
Q 3378 2753 2422 1800 
Q 2347 1728 2309 1691 
L 1131 513 
L 3078 513 
L 3078 1088 
L 3444 1088 
L 3444 0 
L 434 0 
L 434 341 
L 1850 1753 
Q 2319 2222 2519 2614 
Q 2719 3006 2719 3438 
Q 2719 3909 2473 4175 
Q 2228 4441 1797 4441 
Q 1350 4441 1106 4219 
Q 863 3997 819 3553 
z
" transform="scale(0.015625)"/>
       </defs>
       <use xlink:href="#DejaVuSerif-32"/>
       <use xlink:href="#DejaVuSerif-30" transform="translate(63.623047 0)"/>
      </g>
     </g>
    </g>
    <g id="xtick_6">
     <g id="line2d_11">
      <path d="M 561.994075 383.2 
L 561.994075 29.58 
" clip-path="url(#pdf30feb918)" style="fill: none; stroke: #b0b0b0; stroke-width: 0.8; stroke-linecap: square"/>
     </g>
     <g id="line2d_12">
      <g>
       <use xlink:href="#m26f41f5faf" x="561.994075" y="383.2" style="stroke: #000000; stroke-width: 0.8"/>
      </g>
     </g>
     <g id="text_6">
      <!-- 25 -->
      <g transform="translate(554.359075 399.318125) scale(0.12 -0.12)">
       <use xlink:href="#DejaVuSerif-32"/>
       <use xlink:href="#DejaVuSerif-35" transform="translate(63.623047 0)"/>
      </g>
     </g>
    </g>
    <g id="xtick_7">
     <g id="line2d_13">
      <path d="M 652.798481 383.2 
L 652.798481 29.58 
" clip-path="url(#pdf30feb918)" style="fill: none; stroke: #b0b0b0; stroke-width: 0.8; stroke-linecap: square"/>
     </g>
     <g id="line2d_14">
      <g>
       <use xlink:href="#m26f41f5faf" x="652.798481" y="383.2" style="stroke: #000000; stroke-width: 0.8"/>
      </g>
     </g>
     <g id="text_7">
      <!-- 30 -->
      <g transform="translate(645.163481 399.318125) scale(0.12 -0.12)">
       <defs>
        <path id="DejaVuSerif-33" d="M 622 4469 
Q 988 4606 1323 4678 
Q 1659 4750 1953 4750 
Q 2638 4750 3022 4454 
Q 3406 4159 3406 3634 
Q 3406 3213 3140 2930 
Q 2875 2647 2388 2547 
Q 2963 2466 3280 2130 
Q 3597 1794 3597 1259 
Q 3597 606 3158 257 
Q 2719 -91 1894 -91 
Q 1528 -91 1179 -12 
Q 831 66 488 225 
L 488 1131 
L 838 1131 
Q 869 681 1141 450 
Q 1413 219 1906 219 
Q 2384 219 2661 495 
Q 2938 772 2938 1253 
Q 2938 1803 2653 2086 
Q 2369 2369 1819 2369 
L 1522 2369 
L 1522 2688 
L 1678 2688 
Q 2225 2688 2498 2914 
Q 2772 3141 2772 3597 
Q 2772 4006 2547 4223 
Q 2322 4441 1900 4441 
Q 1478 4441 1245 4241 
Q 1013 4041 972 3647 
L 622 3647 
L 622 4469 
z
" transform="scale(0.015625)"/>
       </defs>
       <use xlink:href="#DejaVuSerif-33"/>
       <use xlink:href="#DejaVuSerif-30" transform="translate(63.623047 0)"/>
      </g>
     </g>
    </g>
    <g id="text_8">
     <!-- $\varphi$ (rad) -->
     <g transform="translate(372.3625 414.93375) scale(0.12 -0.12)">
      <defs>
       <path id="DejaVuSans-Oblique-3c6" d="M 2969 3034 
Q 2766 3034 2675 2581 
L 2259 438 
Q 2553 438 2916 763 
Q 3244 1053 3375 1750 
Q 3497 2400 3300 2750 
Q 3138 3034 2969 3034 
z
M 3063 3525 
Q 3513 3525 3819 3113 
Q 4147 2672 3981 1750 
Q 3828 903 3291 400 
Q 2784 -75 2159 -75 
L 1916 -1331 
L 1344 -1331 
L 1588 -78 
Q 963 -78 641 400 
Q 309 888 475 1747 
Q 647 2641 1166 3097 
Q 1556 3438 2084 3525 
L 1984 3016 
Q 1766 2944 1538 2700 
Q 1194 2341 1081 1747 
Q 963 1116 1156 756 
Q 1334 434 1688 434 
L 2103 2581 
Q 2288 3525 3063 3525 
z
" transform="scale(0.015625)"/>
       <path id="DejaVuSerif-20" transform="scale(0.015625)"/>
       <path id="DejaVuSerif-28" d="M 2041 -997 
Q 1281 -656 893 83 
Q 506 822 506 1931 
Q 506 3044 893 3783 
Q 1281 4522 2041 4863 
L 2041 4556 
Q 1559 4225 1350 3623 
Q 1141 3022 1141 1931 
Q 1141 844 1350 242 
Q 1559 -359 2041 -691 
L 2041 -997 
z
" transform="scale(0.015625)"/>
       <path id="DejaVuSerif-72" d="M 3059 3328 
L 3059 2497 
L 2728 2497 
Q 2713 2744 2591 2866 
Q 2469 2988 2234 2988 
Q 1809 2988 1582 2694 
Q 1356 2400 1356 1850 
L 1356 331 
L 2022 331 
L 2022 0 
L 263 0 
L 263 331 
L 781 331 
L 781 2994 
L 231 2994 
L 231 3322 
L 1356 3322 
L 1356 2731 
Q 1525 3078 1790 3245 
Q 2056 3413 2438 3413 
Q 2578 3413 2733 3391 
Q 2888 3369 3059 3328 
z
" transform="scale(0.015625)"/>
       <path id="DejaVuSerif-61" d="M 2547 1044 
L 2547 1747 
L 1806 1747 
Q 1378 1747 1168 1562 
Q 959 1378 959 997 
Q 959 650 1171 447 
Q 1384 244 1747 244 
Q 2106 244 2326 466 
Q 2547 688 2547 1044 
z
M 3122 2075 
L 3122 331 
L 3634 331 
L 3634 0 
L 2547 0 
L 2547 359 
Q 2356 128 2106 18 
Q 1856 -91 1522 -91 
Q 969 -91 644 203 
Q 319 497 319 997 
Q 319 1513 691 1797 
Q 1063 2081 1741 2081 
L 2547 2081 
L 2547 2309 
Q 2547 2688 2317 2895 
Q 2088 3103 1672 3103 
Q 1328 3103 1125 2947 
Q 922 2791 872 2484 
L 575 2484 
L 575 3156 
Q 875 3284 1158 3348 
Q 1441 3413 1709 3413 
Q 2400 3413 2761 3070 
Q 3122 2728 3122 2075 
z
" transform="scale(0.015625)"/>
       <path id="DejaVuSerif-64" d="M 3359 331 
L 3909 331 
L 3909 0 
L 2784 0 
L 2784 519 
Q 2616 206 2355 57 
Q 2094 -91 1709 -91 
Q 1097 -91 708 395 
Q 319 881 319 1663 
Q 319 2444 706 2928 
Q 1094 3413 1709 3413 
Q 2094 3413 2355 3264 
Q 2616 3116 2784 2803 
L 2784 4531 
L 2241 4531 
L 2241 4863 
L 3359 4863 
L 3359 331 
z
M 2784 1497 
L 2784 1825 
Q 2784 2422 2554 2737 
Q 2325 3053 1888 3053 
Q 1444 3053 1217 2703 
Q 991 2353 991 1663 
Q 991 975 1217 622 
Q 1444 269 1888 269 
Q 2325 269 2554 583 
Q 2784 897 2784 1497 
z
" transform="scale(0.015625)"/>
       <path id="DejaVuSerif-29" d="M 453 -997 
L 453 -691 
Q 934 -359 1145 242 
Q 1356 844 1356 1931 
Q 1356 3022 1145 3623 
Q 934 4225 453 4556 
L 453 4863 
Q 1216 4522 1603 3783 
Q 1991 3044 1991 1931 
Q 1991 822 1603 83 
Q 1216 -656 453 -997 
z
" transform="scale(0.015625)"/>
      </defs>
      <use xlink:href="#DejaVuSans-Oblique-3c6" transform="translate(0 0.015625)"/>
      <use xlink:href="#DejaVuSerif-20" transform="translate(65.966797 0.015625)"/>
      <use xlink:href="#DejaVuSerif-28" transform="translate(97.753906 0.015625)"/>
      <use xlink:href="#DejaVuSerif-72" transform="translate(136.767578 0.015625)"/>
      <use xlink:href="#DejaVuSerif-61" transform="translate(184.570312 0.015625)"/>
      <use xlink:href="#DejaVuSerif-64" transform="translate(244.189453 0.015625)"/>
      <use xlink:href="#DejaVuSerif-29" transform="translate(308.203125 0.015625)"/>
     </g>
    </g>
   </g>
   <g id="matplotlib.axis_2">
    <g id="ytick_1">
     <g id="line2d_15">
      <path d="M 79.445 362.986735 
L 707.04 362.986735 
" clip-path="url(#pdf30feb918)" style="fill: none; stroke: #b0b0b0; stroke-width: 0.8; stroke-linecap: square"/>
     </g>
     <g id="line2d_16">
      <defs>
       <path id="me54c97b5ff" d="M 0 0 
L -3.5 0 
" style="stroke: #000000; stroke-width: 0.8"/>
      </defs>
      <g>
       <use xlink:href="#me54c97b5ff" x="79.445" y="362.986735" style="stroke: #000000; stroke-width: 0.8"/>
      </g>
     </g>
     <g id="text_9">
      <!-- 89.950 -->
      <g transform="translate(30.45625 367.545797) scale(0.12 -0.12)">
       <defs>
        <path id="DejaVuSerif-38" d="M 2981 1275 
Q 2981 1775 2732 2051 
Q 2484 2328 2034 2328 
Q 1584 2328 1336 2051 
Q 1088 1775 1088 1275 
Q 1088 772 1336 495 
Q 1584 219 2034 219 
Q 2484 219 2732 495 
Q 2981 772 2981 1275 
z
M 2853 3541 
Q 2853 3966 2637 4203 
Q 2422 4441 2034 4441 
Q 1650 4441 1433 4203 
Q 1216 3966 1216 3541 
Q 1216 3113 1433 2875 
Q 1650 2638 2034 2638 
Q 2422 2638 2637 2875 
Q 2853 3113 2853 3541 
z
M 2516 2484 
Q 3047 2413 3344 2092 
Q 3641 1772 3641 1275 
Q 3641 619 3225 264 
Q 2809 -91 2034 -91 
Q 1263 -91 845 264 
Q 428 619 428 1275 
Q 428 1772 725 2092 
Q 1022 2413 1556 2484 
Q 1084 2569 832 2842 
Q 581 3116 581 3541 
Q 581 4103 968 4426 
Q 1356 4750 2034 4750 
Q 2713 4750 3100 4426 
Q 3488 4103 3488 3541 
Q 3488 3116 3236 2842 
Q 2984 2569 2516 2484 
z
" transform="scale(0.015625)"/>
        <path id="DejaVuSerif-39" d="M 2994 2091 
Q 2784 1856 2512 1740 
Q 2241 1625 1900 1625 
Q 1206 1625 804 2044 
Q 403 2463 403 3188 
Q 403 3897 839 4323 
Q 1275 4750 2003 4750 
Q 2794 4750 3217 4161 
Q 3641 3572 3641 2478 
Q 3641 1253 3137 581 
Q 2634 -91 1722 -91 
Q 1475 -91 1203 -44 
Q 931 3 647 97 
L 647 872 
L 997 872 
Q 1038 556 1241 387 
Q 1444 219 1784 219 
Q 2391 219 2687 676 
Q 2984 1134 2994 2091 
z
M 1978 4441 
Q 1534 4441 1298 4117 
Q 1063 3794 1063 3188 
Q 1063 2581 1298 2256 
Q 1534 1931 1978 1931 
Q 2422 1931 2658 2245 
Q 2894 2559 2894 3150 
Q 2894 3772 2656 4106 
Q 2419 4441 1978 4441 
z
" transform="scale(0.015625)"/>
        <path id="DejaVuSerif-2e" d="M 603 325 
Q 603 500 722 622 
Q 841 744 1019 744 
Q 1191 744 1312 622 
Q 1434 500 1434 325 
Q 1434 153 1312 31 
Q 1191 -91 1019 -91 
Q 841 -91 722 29 
Q 603 150 603 325 
z
" transform="scale(0.015625)"/>
       </defs>
       <use xlink:href="#DejaVuSerif-38"/>
       <use xlink:href="#DejaVuSerif-39" transform="translate(63.623047 0)"/>
       <use xlink:href="#DejaVuSerif-2e" transform="translate(127.246094 0)"/>
       <use xlink:href="#DejaVuSerif-39" transform="translate(159.033203 0)"/>
       <use xlink:href="#DejaVuSerif-35" transform="translate(222.65625 0)"/>
       <use xlink:href="#DejaVuSerif-30" transform="translate(286.279297 0)"/>
      </g>
     </g>
    </g>
    <g id="ytick_2">
     <g id="line2d_17">
      <path d="M 79.445 319.28651 
L 707.04 319.28651 
" clip-path="url(#pdf30feb918)" style="fill: none; stroke: #b0b0b0; stroke-width: 0.8; stroke-linecap: square"/>
     </g>
     <g id="line2d_18">
      <g>
       <use xlink:href="#me54c97b5ff" x="79.445" y="319.28651" style="stroke: #000000; stroke-width: 0.8"/>
      </g>
     </g>
     <g id="text_10">
      <!-- 89.955 -->
      <g transform="translate(30.45625 323.845573) scale(0.12 -0.12)">
       <use xlink:href="#DejaVuSerif-38"/>
       <use xlink:href="#DejaVuSerif-39" transform="translate(63.623047 0)"/>
       <use xlink:href="#DejaVuSerif-2e" transform="translate(127.246094 0)"/>
       <use xlink:href="#DejaVuSerif-39" transform="translate(159.033203 0)"/>
       <use xlink:href="#DejaVuSerif-35" transform="translate(222.65625 0)"/>
       <use xlink:href="#DejaVuSerif-35" transform="translate(286.279297 0)"/>
      </g>
     </g>
    </g>
    <g id="ytick_3">
     <g id="line2d_19">
      <path d="M 79.445 275.586286 
L 707.04 275.586286 
" clip-path="url(#pdf30feb918)" style="fill: none; stroke: #b0b0b0; stroke-width: 0.8; stroke-linecap: square"/>
     </g>
     <g id="line2d_20">
      <g>
       <use xlink:href="#me54c97b5ff" x="79.445" y="275.586286" style="stroke: #000000; stroke-width: 0.8"/>
      </g>
     </g>
     <g id="text_11">
      <!-- 89.960 -->
      <g transform="translate(30.45625 280.145349) scale(0.12 -0.12)">
       <defs>
        <path id="DejaVuSerif-36" d="M 2094 219 
Q 2534 219 2771 542 
Q 3009 866 3009 1472 
Q 3009 2078 2771 2401 
Q 2534 2725 2094 2725 
Q 1647 2725 1412 2412 
Q 1178 2100 1178 1509 
Q 1178 888 1415 553 
Q 1653 219 2094 219 
z
M 1075 2569 
Q 1288 2803 1556 2918 
Q 1825 3034 2163 3034 
Q 2859 3034 3264 2615 
Q 3669 2197 3669 1472 
Q 3669 763 3233 336 
Q 2797 -91 2069 -91 
Q 1278 -91 853 498 
Q 428 1088 428 2181 
Q 428 3406 931 4078 
Q 1434 4750 2350 4750 
Q 2597 4750 2869 4703 
Q 3141 4656 3425 4563 
L 3425 3794 
L 3072 3794 
Q 3034 4109 2831 4275 
Q 2628 4441 2284 4441 
Q 1678 4441 1381 3981 
Q 1084 3522 1075 2569 
z
" transform="scale(0.015625)"/>
       </defs>
       <use xlink:href="#DejaVuSerif-38"/>
       <use xlink:href="#DejaVuSerif-39" transform="translate(63.623047 0)"/>
       <use xlink:href="#DejaVuSerif-2e" transform="translate(127.246094 0)"/>
       <use xlink:href="#DejaVuSerif-39" transform="translate(159.033203 0)"/>
       <use xlink:href="#DejaVuSerif-36" transform="translate(222.65625 0)"/>
       <use xlink:href="#DejaVuSerif-30" transform="translate(286.279297 0)"/>
      </g>
     </g>
    </g>
    <g id="ytick_4">
     <g id="line2d_21">
      <path d="M 79.445 231.886062 
L 707.04 231.886062 
" clip-path="url(#pdf30feb918)" style="fill: none; stroke: #b0b0b0; stroke-width: 0.8; stroke-linecap: square"/>
     </g>
     <g id="line2d_22">
      <g>
       <use xlink:href="#me54c97b5ff" x="79.445" y="231.886062" style="stroke: #000000; stroke-width: 0.8"/>
      </g>
     </g>
     <g id="text_12">
      <!-- 89.965 -->
      <g transform="translate(30.45625 236.445124) scale(0.12 -0.12)">
       <use xlink:href="#DejaVuSerif-38"/>
       <use xlink:href="#DejaVuSerif-39" transform="translate(63.623047 0)"/>
       <use xlink:href="#DejaVuSerif-2e" transform="translate(127.246094 0)"/>
       <use xlink:href="#DejaVuSerif-39" transform="translate(159.033203 0)"/>
       <use xlink:href="#DejaVuSerif-36" transform="translate(222.65625 0)"/>
       <use xlink:href="#DejaVuSerif-35" transform="translate(286.279297 0)"/>
      </g>
     </g>
    </g>
    <g id="ytick_5">
     <g id="line2d_23">
      <path d="M 79.445 188.185837 
L 707.04 188.185837 
" clip-path="url(#pdf30feb918)" style="fill: none; stroke: #b0b0b0; stroke-width: 0.8; stroke-linecap: square"/>
     </g>
     <g id="line2d_24">
      <g>
       <use xlink:href="#me54c97b5ff" x="79.445" y="188.185837" style="stroke: #000000; stroke-width: 0.8"/>
      </g>
     </g>
     <g id="text_13">
      <!-- 89.970 -->
      <g transform="translate(30.45625 192.7449) scale(0.12 -0.12)">
       <defs>
        <path id="DejaVuSerif-37" d="M 3609 4347 
L 1784 0 
L 1319 0 
L 3059 4153 
L 903 4153 
L 903 3578 
L 538 3578 
L 538 4666 
L 3609 4666 
L 3609 4347 
z
" transform="scale(0.015625)"/>
       </defs>
       <use xlink:href="#DejaVuSerif-38"/>
       <use xlink:href="#DejaVuSerif-39" transform="translate(63.623047 0)"/>
       <use xlink:href="#DejaVuSerif-2e" transform="translate(127.246094 0)"/>
       <use xlink:href="#DejaVuSerif-39" transform="translate(159.033203 0)"/>
       <use xlink:href="#DejaVuSerif-37" transform="translate(222.65625 0)"/>
       <use xlink:href="#DejaVuSerif-30" transform="translate(286.279297 0)"/>
      </g>
     </g>
    </g>
    <g id="ytick_6">
     <g id="line2d_25">
      <path d="M 79.445 144.485613 
L 707.04 144.485613 
" clip-path="url(#pdf30feb918)" style="fill: none; stroke: #b0b0b0; stroke-width: 0.8; stroke-linecap: square"/>
     </g>
     <g id="line2d_26">
      <g>
       <use xlink:href="#me54c97b5ff" x="79.445" y="144.485613" style="stroke: #000000; stroke-width: 0.8"/>
      </g>
     </g>
     <g id="text_14">
      <!-- 89.975 -->
      <g transform="translate(30.45625 149.044675) scale(0.12 -0.12)">
       <use xlink:href="#DejaVuSerif-38"/>
       <use xlink:href="#DejaVuSerif-39" transform="translate(63.623047 0)"/>
       <use xlink:href="#DejaVuSerif-2e" transform="translate(127.246094 0)"/>
       <use xlink:href="#DejaVuSerif-39" transform="translate(159.033203 0)"/>
       <use xlink:href="#DejaVuSerif-37" transform="translate(222.65625 0)"/>
       <use xlink:href="#DejaVuSerif-35" transform="translate(286.279297 0)"/>
      </g>
     </g>
    </g>
    <g id="ytick_7">
     <g id="line2d_27">
      <path d="M 79.445 100.785389 
L 707.04 100.785389 
" clip-path="url(#pdf30feb918)" style="fill: none; stroke: #b0b0b0; stroke-width: 0.8; stroke-linecap: square"/>
     </g>
     <g id="line2d_28">
      <g>
       <use xlink:href="#me54c97b5ff" x="79.445" y="100.785389" style="stroke: #000000; stroke-width: 0.8"/>
      </g>
     </g>
     <g id="text_15">
      <!-- 89.980 -->
      <g transform="translate(30.45625 105.344451) scale(0.12 -0.12)">
       <use xlink:href="#DejaVuSerif-38"/>
       <use xlink:href="#DejaVuSerif-39" transform="translate(63.623047 0)"/>
       <use xlink:href="#DejaVuSerif-2e" transform="translate(127.246094 0)"/>
       <use xlink:href="#DejaVuSerif-39" transform="translate(159.033203 0)"/>
       <use xlink:href="#DejaVuSerif-38" transform="translate(222.65625 0)"/>
       <use xlink:href="#DejaVuSerif-30" transform="translate(286.279297 0)"/>
      </g>
     </g>
    </g>
    <g id="ytick_8">
     <g id="line2d_29">
      <path d="M 79.445 57.085164 
L 707.04 57.085164 
" clip-path="url(#pdf30feb918)" style="fill: none; stroke: #b0b0b0; stroke-width: 0.8; stroke-linecap: square"/>
     </g>
     <g id="line2d_30">
      <g>
       <use xlink:href="#me54c97b5ff" x="79.445" y="57.085164" style="stroke: #000000; stroke-width: 0.8"/>
      </g>
     </g>
     <g id="text_16">
      <!-- 89.985 -->
      <g transform="translate(30.45625 61.644227) scale(0.12 -0.12)">
       <use xlink:href="#DejaVuSerif-38"/>
       <use xlink:href="#DejaVuSerif-39" transform="translate(63.623047 0)"/>
       <use xlink:href="#DejaVuSerif-2e" transform="translate(127.246094 0)"/>
       <use xlink:href="#DejaVuSerif-39" transform="translate(159.033203 0)"/>
       <use xlink:href="#DejaVuSerif-38" transform="translate(222.65625 0)"/>
       <use xlink:href="#DejaVuSerif-35" transform="translate(286.279297 0)"/>
      </g>
     </g>
    </g>
    <g id="text_17">
     <!-- $\alpha(r,\varphi)$ (degrees) -->
     <g transform="translate(23.69625 255.41) rotate(-90) scale(0.12 -0.12)">
      <defs>
       <path id="DejaVuSans-Oblique-3b1" d="M 2619 1628 
L 2622 2350 
Q 2625 3088 2069 3091 
Q 1653 3094 1394 2747 
Q 1069 2319 959 1747 
Q 825 1059 994 731 
Q 1169 397 1547 397 
Q 1966 397 2319 1063 
L 2619 1628 
z
M 2166 3578 
Q 3141 3594 3128 2584 
Q 3128 2584 3616 3500 
L 4128 3500 
L 3119 1603 
L 3109 919 
Q 3109 766 3194 638 
Q 3291 488 3391 488 
L 3669 488 
L 3575 0 
L 3228 0 
Q 2934 0 2722 263 
Q 2622 394 2619 669 
Q 2416 334 2066 50 
Q 1900 -81 1453 -78 
Q 722 -72 456 397 
Q 184 884 353 1747 
Q 534 2675 1009 3097 
Q 1544 3569 2166 3578 
z
" transform="scale(0.015625)"/>
       <path id="DejaVuSans-28" d="M 1984 4856 
Q 1566 4138 1362 3434 
Q 1159 2731 1159 2009 
Q 1159 1288 1364 580 
Q 1569 -128 1984 -844 
L 1484 -844 
Q 1016 -109 783 600 
Q 550 1309 550 2009 
Q 550 2706 781 3412 
Q 1013 4119 1484 4856 
L 1984 4856 
z
" transform="scale(0.015625)"/>
       <path id="DejaVuSans-Oblique-72" d="M 2853 2969 
Q 2766 3016 2653 3041 
Q 2541 3066 2413 3066 
Q 1953 3066 1609 2717 
Q 1266 2369 1153 1784 
L 800 0 
L 225 0 
L 909 3500 
L 1484 3500 
L 1375 2956 
Q 1603 3259 1920 3421 
Q 2238 3584 2597 3584 
Q 2691 3584 2781 3573 
Q 2872 3563 2963 3538 
L 2853 2969 
z
" transform="scale(0.015625)"/>
       <path id="DejaVuSans-2c" d="M 750 794 
L 1409 794 
L 1409 256 
L 897 -744 
L 494 -744 
L 750 256 
L 750 794 
z
" transform="scale(0.015625)"/>
       <path id="DejaVuSans-29" d="M 513 4856 
L 1013 4856 
Q 1481 4119 1714 3412 
Q 1947 2706 1947 2009 
Q 1947 1309 1714 600 
Q 1481 -109 1013 -844 
L 513 -844 
Q 928 -128 1133 580 
Q 1338 1288 1338 2009 
Q 1338 2731 1133 3434 
Q 928 4138 513 4856 
z
" transform="scale(0.015625)"/>
       <path id="DejaVuSerif-65" d="M 3469 1600 
L 991 1600 
L 991 1575 
Q 991 903 1244 561 
Q 1497 219 1991 219 
Q 2369 219 2611 417 
Q 2853 616 2950 1006 
L 3413 1006 
Q 3275 459 2904 184 
Q 2534 -91 1931 -91 
Q 1203 -91 761 389 
Q 319 869 319 1663 
Q 319 2450 753 2931 
Q 1188 3413 1894 3413 
Q 2647 3413 3050 2948 
Q 3453 2484 3469 1600 
z
M 2791 1931 
Q 2772 2513 2545 2808 
Q 2319 3103 1894 3103 
Q 1497 3103 1269 2806 
Q 1041 2509 991 1931 
L 2791 1931 
z
" transform="scale(0.015625)"/>
       <path id="DejaVuSerif-67" d="M 3359 2988 
L 3359 72 
Q 3359 -644 2965 -1033 
Q 2572 -1422 1844 -1422 
Q 1516 -1422 1216 -1362 
Q 916 -1303 641 -1184 
L 641 -488 
L 941 -488 
Q 997 -813 1206 -963 
Q 1416 -1113 1806 -1113 
Q 2313 -1113 2548 -827 
Q 2784 -541 2784 72 
L 2784 519 
Q 2616 206 2355 57 
Q 2094 -91 1709 -91 
Q 1097 -91 708 395 
Q 319 881 319 1663 
Q 319 2444 706 2928 
Q 1094 3413 1709 3413 
Q 2094 3413 2355 3264 
Q 2616 3116 2784 2803 
L 2784 3322 
L 3909 3322 
L 3909 2988 
L 3359 2988 
z
M 2784 1825 
Q 2784 2422 2554 2737 
Q 2325 3053 1888 3053 
Q 1444 3053 1217 2703 
Q 991 2353 991 1663 
Q 991 975 1217 622 
Q 1444 269 1888 269 
Q 2325 269 2554 583 
Q 2784 897 2784 1497 
L 2784 1825 
z
" transform="scale(0.015625)"/>
       <path id="DejaVuSerif-73" d="M 359 184 
L 359 959 
L 691 959 
Q 703 588 923 403 
Q 1144 219 1575 219 
Q 1963 219 2166 364 
Q 2369 509 2369 788 
Q 2369 1006 2220 1140 
Q 2072 1275 1594 1428 
L 1178 1569 
Q 750 1706 558 1912 
Q 366 2119 366 2438 
Q 366 2894 700 3153 
Q 1034 3413 1625 3413 
Q 1888 3413 2178 3344 
Q 2469 3275 2778 3144 
L 2778 2419 
L 2447 2419 
Q 2434 2741 2221 2922 
Q 2009 3103 1644 3103 
Q 1281 3103 1095 2975 
Q 909 2847 909 2591 
Q 909 2381 1050 2254 
Q 1191 2128 1613 1997 
L 2069 1856 
Q 2541 1709 2748 1489 
Q 2956 1269 2956 922 
Q 2956 450 2595 179 
Q 2234 -91 1600 -91 
Q 1278 -91 972 -22 
Q 666 47 359 184 
z
" transform="scale(0.015625)"/>
      </defs>
      <use xlink:href="#DejaVuSans-Oblique-3b1" transform="translate(0 0.015625)"/>
      <use xlink:href="#DejaVuSans-28" transform="translate(65.917969 0.015625)"/>
      <use xlink:href="#DejaVuSans-Oblique-72" transform="translate(104.931641 0.015625)"/>
      <use xlink:href="#DejaVuSans-2c" transform="translate(146.044922 0.015625)"/>
      <use xlink:href="#DejaVuSans-Oblique-3c6" transform="translate(197.314453 0.015625)"/>
      <use xlink:href="#DejaVuSans-29" transform="translate(263.28125 0.015625)"/>
      <use xlink:href="#DejaVuSerif-20" transform="translate(302.294922 0.015625)"/>
      <use xlink:href="#DejaVuSerif-28" transform="translate(334.082031 0.015625)"/>
      <use xlink:href="#DejaVuSerif-64" transform="translate(373.095703 0.015625)"/>
      <use xlink:href="#DejaVuSerif-65" transform="translate(437.109375 0.015625)"/>
      <use xlink:href="#DejaVuSerif-67" transform="translate(496.289062 0.015625)"/>
      <use xlink:href="#DejaVuSerif-72" transform="translate(560.302734 0.015625)"/>
      <use xlink:href="#DejaVuSerif-65" transform="translate(608.105469 0.015625)"/>
      <use xlink:href="#DejaVuSerif-65" transform="translate(667.285156 0.015625)"/>
      <use xlink:href="#DejaVuSerif-73" transform="translate(726.464844 0.015625)"/>
      <use xlink:href="#DejaVuSerif-29" transform="translate(777.783203 0.015625)"/>
     </g>
    </g>
   </g>
   <g id="line2d_31">
    <path d="M 107.972045 45.653636 
L 678.512955 45.653636 
L 678.512955 45.653636 
" clip-path="url(#pdf30feb918)" style="fill: none; stroke: #0d0887; stroke-width: 1.5; stroke-linecap: square"/>
   </g>
   <g id="line2d_32">
    <path d="M 107.972045 46.345122 
L 678.512955 46.345122 
L 678.512955 46.345122 
" clip-path="url(#pdf30feb918)" style="fill: none; stroke: #46039f; stroke-width: 1.5; stroke-linecap: square"/>
   </g>
   <g id="line2d_33">
    <path d="M 107.972045 48.15245 
L 678.512955 48.15245 
L 678.512955 48.15245 
" clip-path="url(#pdf30feb918)" style="fill: none; stroke: #7201a8; stroke-width: 1.5; stroke-linecap: square"/>
   </g>
   <g id="line2d_34">
    <path d="M 107.972045 51.732898 
L 678.512955 51.732898 
L 678.512955 51.732898 
" clip-path="url(#pdf30feb918)" style="fill: none; stroke: #9c179e; stroke-width: 1.5; stroke-linecap: square"/>
   </g>
   <g id="line2d_35">
    <path d="M 107.972045 58.016517 
L 678.512955 58.016517 
L 678.512955 58.016517 
" clip-path="url(#pdf30feb918)" style="fill: none; stroke: #bd3786; stroke-width: 1.5; stroke-linecap: square"/>
   </g>
   <g id="line2d_36">
    <path d="M 107.972045 68.540187 
L 678.512955 68.540187 
L 678.512955 68.540187 
" clip-path="url(#pdf30feb918)" style="fill: none; stroke: #d8576b; stroke-width: 1.5; stroke-linecap: square"/>
   </g>
   <g id="line2d_37">
    <path d="M 107.972045 86.246435 
L 678.512955 86.246435 
L 678.512955 86.246435 
" clip-path="url(#pdf30feb918)" style="fill: none; stroke: #ed7953; stroke-width: 1.5; stroke-linecap: square"/>
   </g>
   <g id="line2d_38">
    <path d="M 107.972045 117.789862 
L 678.512955 117.789862 
L 678.512955 117.789862 
" clip-path="url(#pdf30feb918)" style="fill: none; stroke: #fb9f3a; stroke-width: 1.5; stroke-linecap: square"/>
   </g>
   <g id="line2d_39">
    <path d="M 107.972045 182.325432 
L 678.512955 182.325432 
L 678.512955 182.325432 
" clip-path="url(#pdf30feb918)" style="fill: none; stroke: #fdca26; stroke-width: 1.5; stroke-linecap: square"/>
   </g>
   <g id="line2d_40">
    <path d="M 107.972045 367.126364 
L 678.512955 367.126364 
L 678.512955 367.126364 
" clip-path="url(#pdf30feb918)" style="fill: none; stroke: #f0f921; stroke-width: 1.5; stroke-linecap: square"/>
   </g>
   <g id="patch_3">
    <path d="M 79.445 383.2 
L 79.445 29.58 
" style="fill: none; stroke: #000000; stroke-width: 0.8; stroke-linejoin: miter; stroke-linecap: square"/>
   </g>
   <g id="patch_4">
    <path d="M 707.04 383.2 
L 707.04 29.58 
" style="fill: none; stroke: #000000; stroke-width: 0.8; stroke-linejoin: miter; stroke-linecap: square"/>
   </g>
   <g id="patch_5">
    <path d="M 79.445 383.2 
L 707.04 383.2 
" style="fill: none; stroke: #000000; stroke-width: 0.8; stroke-linejoin: miter; stroke-linecap: square"/>
   </g>
   <g id="patch_6">
    <path d="M 79.445 29.58 
L 707.04 29.58 
" style="fill: none; stroke: #000000; stroke-width: 0.8; stroke-linejoin: miter; stroke-linecap: square"/>
   </g>
   <g id="text_18">
    <!-- Pitch Angle vs Azimuthal Angle -->
    <g transform="translate(278.7085 23.58) scale(0.144 -0.144)">
     <defs>
      <path id="DejaVuSerif-50" d="M 1581 2375 
L 2406 2375 
Q 2872 2375 3115 2626 
Q 3359 2878 3359 3353 
Q 3359 3831 3115 4081 
Q 2872 4331 2406 4331 
L 1581 4331 
L 1581 2375 
z
M 353 0 
L 353 331 
L 947 331 
L 947 4331 
L 353 4331 
L 353 4666 
L 2559 4666 
Q 3259 4666 3668 4311 
Q 4078 3956 4078 3353 
Q 4078 2753 3668 2397 
Q 3259 2041 2559 2041 
L 1581 2041 
L 1581 331 
L 2303 331 
L 2303 0 
L 353 0 
z
" transform="scale(0.015625)"/>
      <path id="DejaVuSerif-69" d="M 622 4353 
Q 622 4497 726 4603 
Q 831 4709 978 4709 
Q 1122 4709 1226 4603 
Q 1331 4497 1331 4353 
Q 1331 4206 1228 4103 
Q 1125 4000 978 4000 
Q 831 4000 726 4103 
Q 622 4206 622 4353 
z
M 1356 331 
L 1900 331 
L 1900 0 
L 231 0 
L 231 331 
L 781 331 
L 781 2988 
L 231 2988 
L 231 3322 
L 1356 3322 
L 1356 331 
z
" transform="scale(0.015625)"/>
      <path id="DejaVuSerif-74" d="M 691 2988 
L 184 2988 
L 184 3322 
L 691 3322 
L 691 4353 
L 1269 4353 
L 1269 3322 
L 2350 3322 
L 2350 2988 
L 1269 2988 
L 1269 878 
Q 1269 456 1350 337 
Q 1431 219 1650 219 
Q 1875 219 1978 351 
Q 2081 484 2088 781 
L 2522 781 
Q 2497 328 2275 118 
Q 2053 -91 1600 -91 
Q 1103 -91 897 129 
Q 691 350 691 878 
L 691 2988 
z
" transform="scale(0.015625)"/>
      <path id="DejaVuSerif-63" d="M 3291 997 
Q 3169 466 2822 187 
Q 2475 -91 1925 -91 
Q 1200 -91 759 389 
Q 319 869 319 1663 
Q 319 2459 759 2936 
Q 1200 3413 1925 3413 
Q 2241 3413 2553 3339 
Q 2866 3266 3181 3116 
L 3181 2266 
L 2847 2266 
Q 2781 2703 2561 2903 
Q 2341 3103 1931 3103 
Q 1466 3103 1228 2742 
Q 991 2381 991 1663 
Q 991 944 1227 581 
Q 1463 219 1931 219 
Q 2303 219 2525 412 
Q 2747 606 2828 997 
L 3291 997 
z
" transform="scale(0.015625)"/>
      <path id="DejaVuSerif-68" d="M 263 0 
L 263 331 
L 781 331 
L 781 4531 
L 231 4531 
L 231 4863 
L 1356 4863 
L 1356 2731 
Q 1516 3069 1770 3241 
Q 2025 3413 2363 3413 
Q 2913 3413 3172 3097 
Q 3431 2781 3431 2113 
L 3431 331 
L 3944 331 
L 3944 0 
L 2356 0 
L 2356 331 
L 2853 331 
L 2853 1931 
Q 2853 2541 2704 2764 
Q 2556 2988 2175 2988 
Q 1775 2988 1565 2697 
Q 1356 2406 1356 1850 
L 1356 331 
L 1856 331 
L 1856 0 
L 263 0 
z
" transform="scale(0.015625)"/>
      <path id="DejaVuSerif-41" d="M 1281 1691 
L 2994 1691 
L 2138 3909 
L 1281 1691 
z
M -38 0 
L -38 331 
L 372 331 
L 2034 4666 
L 2559 4666 
L 4225 331 
L 4684 331 
L 4684 0 
L 2988 0 
L 2988 331 
L 3506 331 
L 3116 1356 
L 1153 1356 
L 763 331 
L 1275 331 
L 1275 0 
L -38 0 
z
" transform="scale(0.015625)"/>
      <path id="DejaVuSerif-6e" d="M 263 0 
L 263 331 
L 781 331 
L 781 2988 
L 231 2988 
L 231 3322 
L 1356 3322 
L 1356 2731 
Q 1516 3069 1770 3241 
Q 2025 3413 2363 3413 
Q 2913 3413 3172 3097 
Q 3431 2781 3431 2113 
L 3431 331 
L 3944 331 
L 3944 0 
L 2356 0 
L 2356 331 
L 2853 331 
L 2853 1931 
Q 2853 2541 2703 2767 
Q 2553 2994 2175 2994 
Q 1775 2994 1565 2701 
Q 1356 2409 1356 1850 
L 1356 331 
L 1856 331 
L 1856 0 
L 263 0 
z
" transform="scale(0.015625)"/>
      <path id="DejaVuSerif-6c" d="M 1313 331 
L 1856 331 
L 1856 0 
L 184 0 
L 184 331 
L 738 331 
L 738 4531 
L 184 4531 
L 184 4863 
L 1313 4863 
L 1313 331 
z
" transform="scale(0.015625)"/>
      <path id="DejaVuSerif-76" d="M 1581 0 
L 359 2988 
L -19 2988 
L -19 3322 
L 1509 3322 
L 1509 2988 
L 978 2988 
L 1913 703 
L 2847 2988 
L 2350 2988 
L 2350 3322 
L 3597 3322 
L 3597 2988 
L 3225 2988 
L 2003 0 
L 1581 0 
z
" transform="scale(0.015625)"/>
      <path id="DejaVuSerif-7a" d="M 256 0 
L 256 269 
L 2338 2988 
L 691 2988 
L 691 2413 
L 359 2413 
L 359 3322 
L 3078 3322 
L 3078 3053 
L 997 331 
L 2803 331 
L 2803 934 
L 3138 934 
L 3138 0 
L 256 0 
z
" transform="scale(0.015625)"/>
      <path id="DejaVuSerif-6d" d="M 3316 2675 
Q 3481 3041 3739 3227 
Q 3997 3413 4341 3413 
Q 4863 3413 5119 3089 
Q 5375 2766 5375 2113 
L 5375 331 
L 5894 331 
L 5894 0 
L 4300 0 
L 4300 331 
L 4800 331 
L 4800 2047 
Q 4800 2556 4650 2772 
Q 4500 2988 4153 2988 
Q 3769 2988 3567 2697 
Q 3366 2406 3366 1850 
L 3366 331 
L 3866 331 
L 3866 0 
L 2291 0 
L 2291 331 
L 2791 331 
L 2791 2069 
Q 2791 2566 2641 2777 
Q 2491 2988 2144 2988 
Q 1759 2988 1557 2697 
Q 1356 2406 1356 1850 
L 1356 331 
L 1856 331 
L 1856 0 
L 263 0 
L 263 331 
L 781 331 
L 781 2994 
L 231 2994 
L 231 3322 
L 1356 3322 
L 1356 2731 
Q 1516 3063 1762 3238 
Q 2009 3413 2322 3413 
Q 2709 3413 2968 3220 
Q 3228 3028 3316 2675 
z
" transform="scale(0.015625)"/>
      <path id="DejaVuSerif-75" d="M 2266 3322 
L 3341 3322 
L 3341 331 
L 3884 331 
L 3884 0 
L 2766 0 
L 2766 588 
Q 2606 256 2353 82 
Q 2100 -91 1766 -91 
Q 1213 -91 952 223 
Q 691 538 691 1209 
L 691 2988 
L 172 2988 
L 172 3322 
L 1269 3322 
L 1269 1388 
Q 1269 781 1417 556 
Q 1566 331 1947 331 
Q 2347 331 2556 625 
Q 2766 919 2766 1478 
L 2766 2988 
L 2266 2988 
L 2266 3322 
z
" transform="scale(0.015625)"/>
     </defs>
     <use xlink:href="#DejaVuSerif-50"/>
     <use xlink:href="#DejaVuSerif-69" transform="translate(67.285156 0)"/>
     <use xlink:href="#DejaVuSerif-74" transform="translate(99.267578 0)"/>
     <use xlink:href="#DejaVuSerif-63" transform="translate(139.453125 0)"/>
     <use xlink:href="#DejaVuSerif-68" transform="translate(195.458984 0)"/>
     <use xlink:href="#DejaVuSerif-20" transform="translate(259.863281 0)"/>
     <use xlink:href="#DejaVuSerif-41" transform="translate(291.650391 0)"/>
     <use xlink:href="#DejaVuSerif-6e" transform="translate(363.867188 0)"/>
     <use xlink:href="#DejaVuSerif-67" transform="translate(428.271484 0)"/>
     <use xlink:href="#DejaVuSerif-6c" transform="translate(492.285156 0)"/>
     <use xlink:href="#DejaVuSerif-65" transform="translate(524.267578 0)"/>
     <use xlink:href="#DejaVuSerif-20" transform="translate(583.447266 0)"/>
     <use xlink:href="#DejaVuSerif-76" transform="translate(615.234375 0)"/>
     <use xlink:href="#DejaVuSerif-73" transform="translate(671.728516 0)"/>
     <use xlink:href="#DejaVuSerif-20" transform="translate(723.046875 0)"/>
     <use xlink:href="#DejaVuSerif-41" transform="translate(754.833984 0)"/>
     <use xlink:href="#DejaVuSerif-7a" transform="translate(827.050781 0)"/>
     <use xlink:href="#DejaVuSerif-69" transform="translate(879.736328 0)"/>
     <use xlink:href="#DejaVuSerif-6d" transform="translate(911.71875 0)"/>
     <use xlink:href="#DejaVuSerif-75" transform="translate(1006.542969 0)"/>
     <use xlink:href="#DejaVuSerif-74" transform="translate(1070.947266 0)"/>
     <use xlink:href="#DejaVuSerif-68" transform="translate(1111.132812 0)"/>
     <use xlink:href="#DejaVuSerif-61" transform="translate(1175.537109 0)"/>
     <use xlink:href="#DejaVuSerif-6c" transform="translate(1235.15625 0)"/>
     <use xlink:href="#DejaVuSerif-20" transform="translate(1267.138672 0)"/>
     <use xlink:href="#DejaVuSerif-41" transform="translate(1298.925781 0)"/>
     <use xlink:href="#DejaVuSerif-6e" transform="translate(1371.142578 0)"/>
     <use xlink:href="#DejaVuSerif-67" transform="translate(1435.546875 0)"/>
     <use xlink:href="#DejaVuSerif-6c" transform="translate(1499.560547 0)"/>
     <use xlink:href="#DejaVuSerif-65" transform="translate(1531.542969 0)"/>
    </g>
   </g>
   <g id="legend_1">
    <g id="patch_7">
     <path d="M 87.845 377.2 
L 198.755 377.2 
Q 201.155 377.2 201.155 374.8 
L 201.155 199.8625 
Q 201.155 197.4625 198.755 197.4625 
L 87.845 197.4625 
Q 85.445 197.4625 85.445 199.8625 
L 85.445 374.8 
Q 85.445 377.2 87.845 377.2 
z
" style="fill: #ffffff; opacity: 0.8; stroke: #cccccc; stroke-linejoin: miter"/>
    </g>
    <g id="line2d_41">
     <path d="M 90.245 207.180625 
L 102.245 207.180625 
L 114.245 207.180625 
" style="fill: none; stroke: #0d0887; stroke-width: 1.5; stroke-linecap: square"/>
    </g>
    <g id="text_19">
     <!-- r = 0.1e10 -->
     <g transform="translate(123.845 211.380625) scale(0.12 -0.12)">
      <defs>
       <path id="DejaVuSerif-3d" d="M 678 2894 
L 4684 2894 
L 4684 2394 
L 678 2394 
L 678 2894 
z
M 678 1619 
L 4684 1619 
L 4684 1119 
L 678 1119 
L 678 1619 
z
" transform="scale(0.015625)"/>
      </defs>
      <use xlink:href="#DejaVuSerif-72"/>
      <use xlink:href="#DejaVuSerif-20" transform="translate(47.802734 0)"/>
      <use xlink:href="#DejaVuSerif-3d" transform="translate(79.589844 0)"/>
      <use xlink:href="#DejaVuSerif-20" transform="translate(163.378906 0)"/>
      <use xlink:href="#DejaVuSerif-30" transform="translate(195.166016 0)"/>
      <use xlink:href="#DejaVuSerif-2e" transform="translate(258.789062 0)"/>
      <use xlink:href="#DejaVuSerif-31" transform="translate(290.576172 0)"/>
      <use xlink:href="#DejaVuSerif-65" transform="translate(354.199219 0)"/>
      <use xlink:href="#DejaVuSerif-31" transform="translate(413.378906 0)"/>
      <use xlink:href="#DejaVuSerif-30" transform="translate(477.001953 0)"/>
     </g>
    </g>
    <g id="line2d_42">
     <path d="M 90.245 224.794375 
L 102.245 224.794375 
L 114.245 224.794375 
" style="fill: none; stroke: #46039f; stroke-width: 1.5; stroke-linecap: square"/>
    </g>
    <g id="text_20">
     <!-- r = 0.19e10 -->
     <g transform="translate(123.845 228.994375) scale(0.12 -0.12)">
      <use xlink:href="#DejaVuSerif-72"/>
      <use xlink:href="#DejaVuSerif-20" transform="translate(47.802734 0)"/>
      <use xlink:href="#DejaVuSerif-3d" transform="translate(79.589844 0)"/>
      <use xlink:href="#DejaVuSerif-20" transform="translate(163.378906 0)"/>
      <use xlink:href="#DejaVuSerif-30" transform="translate(195.166016 0)"/>
      <use xlink:href="#DejaVuSerif-2e" transform="translate(258.789062 0)"/>
      <use xlink:href="#DejaVuSerif-31" transform="translate(290.576172 0)"/>
      <use xlink:href="#DejaVuSerif-39" transform="translate(354.199219 0)"/>
      <use xlink:href="#DejaVuSerif-65" transform="translate(417.822266 0)"/>
      <use xlink:href="#DejaVuSerif-31" transform="translate(477.001953 0)"/>
      <use xlink:href="#DejaVuSerif-30" transform="translate(540.625 0)"/>
     </g>
    </g>
    <g id="line2d_43">
     <path d="M 90.245 242.408125 
L 102.245 242.408125 
L 114.245 242.408125 
" style="fill: none; stroke: #7201a8; stroke-width: 1.5; stroke-linecap: square"/>
    </g>
    <g id="text_21">
     <!-- r = 0.28e10 -->
     <g transform="translate(123.845 246.608125) scale(0.12 -0.12)">
      <use xlink:href="#DejaVuSerif-72"/>
      <use xlink:href="#DejaVuSerif-20" transform="translate(47.802734 0)"/>
      <use xlink:href="#DejaVuSerif-3d" transform="translate(79.589844 0)"/>
      <use xlink:href="#DejaVuSerif-20" transform="translate(163.378906 0)"/>
      <use xlink:href="#DejaVuSerif-30" transform="translate(195.166016 0)"/>
      <use xlink:href="#DejaVuSerif-2e" transform="translate(258.789062 0)"/>
      <use xlink:href="#DejaVuSerif-32" transform="translate(290.576172 0)"/>
      <use xlink:href="#DejaVuSerif-38" transform="translate(354.199219 0)"/>
      <use xlink:href="#DejaVuSerif-65" transform="translate(417.822266 0)"/>
      <use xlink:href="#DejaVuSerif-31" transform="translate(477.001953 0)"/>
      <use xlink:href="#DejaVuSerif-30" transform="translate(540.625 0)"/>
     </g>
    </g>
    <g id="line2d_44">
     <path d="M 90.245 260.021875 
L 102.245 260.021875 
L 114.245 260.021875 
" style="fill: none; stroke: #9c179e; stroke-width: 1.5; stroke-linecap: square"/>
    </g>
    <g id="text_22">
     <!-- r = 0.37e10 -->
     <g transform="translate(123.845 264.221875) scale(0.12 -0.12)">
      <use xlink:href="#DejaVuSerif-72"/>
      <use xlink:href="#DejaVuSerif-20" transform="translate(47.802734 0)"/>
      <use xlink:href="#DejaVuSerif-3d" transform="translate(79.589844 0)"/>
      <use xlink:href="#DejaVuSerif-20" transform="translate(163.378906 0)"/>
      <use xlink:href="#DejaVuSerif-30" transform="translate(195.166016 0)"/>
      <use xlink:href="#DejaVuSerif-2e" transform="translate(258.789062 0)"/>
      <use xlink:href="#DejaVuSerif-33" transform="translate(290.576172 0)"/>
      <use xlink:href="#DejaVuSerif-37" transform="translate(354.199219 0)"/>
      <use xlink:href="#DejaVuSerif-65" transform="translate(417.822266 0)"/>
      <use xlink:href="#DejaVuSerif-31" transform="translate(477.001953 0)"/>
      <use xlink:href="#DejaVuSerif-30" transform="translate(540.625 0)"/>
     </g>
    </g>
    <g id="line2d_45">
     <path d="M 90.245 277.635625 
L 102.245 277.635625 
L 114.245 277.635625 
" style="fill: none; stroke: #bd3786; stroke-width: 1.5; stroke-linecap: square"/>
    </g>
    <g id="text_23">
     <!-- r = 0.46e10 -->
     <g transform="translate(123.845 281.835625) scale(0.12 -0.12)">
      <defs>
       <path id="DejaVuSerif-34" d="M 2234 1581 
L 2234 4063 
L 641 1581 
L 2234 1581 
z
M 3609 0 
L 1484 0 
L 1484 331 
L 2234 331 
L 2234 1247 
L 197 1247 
L 197 1588 
L 2241 4750 
L 2859 4750 
L 2859 1581 
L 3750 1581 
L 3750 1247 
L 2859 1247 
L 2859 331 
L 3609 331 
L 3609 0 
z
" transform="scale(0.015625)"/>
      </defs>
      <use xlink:href="#DejaVuSerif-72"/>
      <use xlink:href="#DejaVuSerif-20" transform="translate(47.802734 0)"/>
      <use xlink:href="#DejaVuSerif-3d" transform="translate(79.589844 0)"/>
      <use xlink:href="#DejaVuSerif-20" transform="translate(163.378906 0)"/>
      <use xlink:href="#DejaVuSerif-30" transform="translate(195.166016 0)"/>
      <use xlink:href="#DejaVuSerif-2e" transform="translate(258.789062 0)"/>
      <use xlink:href="#DejaVuSerif-34" transform="translate(290.576172 0)"/>
      <use xlink:href="#DejaVuSerif-36" transform="translate(354.199219 0)"/>
      <use xlink:href="#DejaVuSerif-65" transform="translate(417.822266 0)"/>
      <use xlink:href="#DejaVuSerif-31" transform="translate(477.001953 0)"/>
      <use xlink:href="#DejaVuSerif-30" transform="translate(540.625 0)"/>
     </g>
    </g>
    <g id="line2d_46">
     <path d="M 90.245 295.249375 
L 102.245 295.249375 
L 114.245 295.249375 
" style="fill: none; stroke: #d8576b; stroke-width: 1.5; stroke-linecap: square"/>
    </g>
    <g id="text_24">
     <!-- r = 0.54e10 -->
     <g transform="translate(123.845 299.449375) scale(0.12 -0.12)">
      <use xlink:href="#DejaVuSerif-72"/>
      <use xlink:href="#DejaVuSerif-20" transform="translate(47.802734 0)"/>
      <use xlink:href="#DejaVuSerif-3d" transform="translate(79.589844 0)"/>
      <use xlink:href="#DejaVuSerif-20" transform="translate(163.378906 0)"/>
      <use xlink:href="#DejaVuSerif-30" transform="translate(195.166016 0)"/>
      <use xlink:href="#DejaVuSerif-2e" transform="translate(258.789062 0)"/>
      <use xlink:href="#DejaVuSerif-35" transform="translate(290.576172 0)"/>
      <use xlink:href="#DejaVuSerif-34" transform="translate(354.199219 0)"/>
      <use xlink:href="#DejaVuSerif-65" transform="translate(417.822266 0)"/>
      <use xlink:href="#DejaVuSerif-31" transform="translate(477.001953 0)"/>
      <use xlink:href="#DejaVuSerif-30" transform="translate(540.625 0)"/>
     </g>
    </g>
    <g id="line2d_47">
     <path d="M 90.245 312.863125 
L 102.245 312.863125 
L 114.245 312.863125 
" style="fill: none; stroke: #ed7953; stroke-width: 1.5; stroke-linecap: square"/>
    </g>
    <g id="text_25">
     <!-- r = 0.63e10 -->
     <g transform="translate(123.845 317.063125) scale(0.12 -0.12)">
      <use xlink:href="#DejaVuSerif-72"/>
      <use xlink:href="#DejaVuSerif-20" transform="translate(47.802734 0)"/>
      <use xlink:href="#DejaVuSerif-3d" transform="translate(79.589844 0)"/>
      <use xlink:href="#DejaVuSerif-20" transform="translate(163.378906 0)"/>
      <use xlink:href="#DejaVuSerif-30" transform="translate(195.166016 0)"/>
      <use xlink:href="#DejaVuSerif-2e" transform="translate(258.789062 0)"/>
      <use xlink:href="#DejaVuSerif-36" transform="translate(290.576172 0)"/>
      <use xlink:href="#DejaVuSerif-33" transform="translate(354.199219 0)"/>
      <use xlink:href="#DejaVuSerif-65" transform="translate(417.822266 0)"/>
      <use xlink:href="#DejaVuSerif-31" transform="translate(477.001953 0)"/>
      <use xlink:href="#DejaVuSerif-30" transform="translate(540.625 0)"/>
     </g>
    </g>
    <g id="line2d_48">
     <path d="M 90.245 330.476875 
L 102.245 330.476875 
L 114.245 330.476875 
" style="fill: none; stroke: #fb9f3a; stroke-width: 1.5; stroke-linecap: square"/>
    </g>
    <g id="text_26">
     <!-- r = 0.72e10 -->
     <g transform="translate(123.845 334.676875) scale(0.12 -0.12)">
      <use xlink:href="#DejaVuSerif-72"/>
      <use xlink:href="#DejaVuSerif-20" transform="translate(47.802734 0)"/>
      <use xlink:href="#DejaVuSerif-3d" transform="translate(79.589844 0)"/>
      <use xlink:href="#DejaVuSerif-20" transform="translate(163.378906 0)"/>
      <use xlink:href="#DejaVuSerif-30" transform="translate(195.166016 0)"/>
      <use xlink:href="#DejaVuSerif-2e" transform="translate(258.789062 0)"/>
      <use xlink:href="#DejaVuSerif-37" transform="translate(290.576172 0)"/>
      <use xlink:href="#DejaVuSerif-32" transform="translate(354.199219 0)"/>
      <use xlink:href="#DejaVuSerif-65" transform="translate(417.822266 0)"/>
      <use xlink:href="#DejaVuSerif-31" transform="translate(477.001953 0)"/>
      <use xlink:href="#DejaVuSerif-30" transform="translate(540.625 0)"/>
     </g>
    </g>
    <g id="line2d_49">
     <path d="M 90.245 348.090625 
L 102.245 348.090625 
L 114.245 348.090625 
" style="fill: none; stroke: #fdca26; stroke-width: 1.5; stroke-linecap: square"/>
    </g>
    <g id="text_27">
     <!-- r = 0.81e10 -->
     <g transform="translate(123.845 352.290625) scale(0.12 -0.12)">
      <use xlink:href="#DejaVuSerif-72"/>
      <use xlink:href="#DejaVuSerif-20" transform="translate(47.802734 0)"/>
      <use xlink:href="#DejaVuSerif-3d" transform="translate(79.589844 0)"/>
      <use xlink:href="#DejaVuSerif-20" transform="translate(163.378906 0)"/>
      <use xlink:href="#DejaVuSerif-30" transform="translate(195.166016 0)"/>
      <use xlink:href="#DejaVuSerif-2e" transform="translate(258.789062 0)"/>
      <use xlink:href="#DejaVuSerif-38" transform="translate(290.576172 0)"/>
      <use xlink:href="#DejaVuSerif-31" transform="translate(354.199219 0)"/>
      <use xlink:href="#DejaVuSerif-65" transform="translate(417.822266 0)"/>
      <use xlink:href="#DejaVuSerif-31" transform="translate(477.001953 0)"/>
      <use xlink:href="#DejaVuSerif-30" transform="translate(540.625 0)"/>
     </g>
    </g>
    <g id="line2d_50">
     <path d="M 90.245 365.704375 
L 102.245 365.704375 
L 114.245 365.704375 
" style="fill: none; stroke: #f0f921; stroke-width: 1.5; stroke-linecap: square"/>
    </g>
    <g id="text_28">
     <!-- r = 0.9e10 -->
     <g transform="translate(123.845 369.904375) scale(0.12 -0.12)">
      <use xlink:href="#DejaVuSerif-72"/>
      <use xlink:href="#DejaVuSerif-20" transform="translate(47.802734 0)"/>
      <use xlink:href="#DejaVuSerif-3d" transform="translate(79.589844 0)"/>
      <use xlink:href="#DejaVuSerif-20" transform="translate(163.378906 0)"/>
      <use xlink:href="#DejaVuSerif-30" transform="translate(195.166016 0)"/>
      <use xlink:href="#DejaVuSerif-2e" transform="translate(258.789062 0)"/>
      <use xlink:href="#DejaVuSerif-39" transform="translate(290.576172 0)"/>
      <use xlink:href="#DejaVuSerif-65" transform="translate(354.199219 0)"/>
      <use xlink:href="#DejaVuSerif-31" transform="translate(413.378906 0)"/>
      <use xlink:href="#DejaVuSerif-30" transform="translate(477.001953 0)"/>
     </g>
    </g>
   </g>
  </g>
 </g>
 <defs>
  <clipPath id="pdf30feb918">
   <rect x="79.445" y="29.58" width="627.595" height="353.62"/>
  </clipPath>
 </defs>
</svg>
